HIERARCHY
ROOT hip
{
	OFFSET 0.000000 0.000000 0.000000 
	CHANNELS 6 Xposition Yposition Zposition Xrotation Zrotation Yrotation
	JOINT abdomen
	{
		OFFSET 0.000000 3.402643 0.000000 
		CHANNELS 3 Xrotation Zrotation Yrotation
		JOINT chest
		{
			OFFSET 0.000000 8.438565 -0.680529 
			CHANNELS 3 Xrotation Zrotation Yrotation
			JOINT neck
			{
				OFFSET 0.000000 10.207942 -0.272212 
				CHANNELS 3 Xrotation Zrotation Yrotation
				JOINT head
				{
					OFFSET 0.000000 3.130431 0.000000 
					CHANNELS 3 Xrotation Zrotation Yrotation
					End Site
					{
						OFFSET 0.000000 3.130435 0.000000 
					}
				}
			}
			JOINT lCollar
			{
				OFFSET 3.470700 6.669187 -0.816635 
				CHANNELS 3 Yrotation Zrotation Xrotation
				JOINT lShldr
				{
					OFFSET 3.198488 0.000000 0.000000 
					CHANNELS 3 Zrotation Yrotation Xrotation
					JOINT lForeArm
					{
						OFFSET 10.139888 0.000000 0.000000 
						CHANNELS 3 Yrotation Zrotation Xrotation
						JOINT lHand
						{
							OFFSET 8.370511 0.000000 0.000000 
							CHANNELS 3 Zrotation Yrotation Xrotation
							End Site
							{
								OFFSET 4.083176 0.000000 0.000000 
							}
						}
					}
				}
			}
			JOINT rCollar
			{
				OFFSET -3.470700 6.669187 -0.816635 
				CHANNELS 3 Yrotation Zrotation Xrotation
				JOINT rShldr
				{
					OFFSET -3.198488 0.000000 0.000000 
					CHANNELS 3 Zrotation Yrotation Xrotation
					JOINT rForeArm
					{
						OFFSET -10.139888 0.000000 0.000000 
						CHANNELS 3 Yrotation Zrotation Xrotation
						JOINT rHand
						{
							OFFSET -8.370511 0.000000 0.000000 
							CHANNELS 3 Zrotation Yrotation Xrotation
							End Site
							{
								OFFSET -4.083176 0.000000 0.000000 
							}
						}
					}
				}
			}
		}
	}
	JOINT lThigh
	{
		OFFSET 5.308129 -1.633274 1.361059 
		CHANNELS 3 Xrotation Zrotation Yrotation
		JOINT lShin
		{
			OFFSET -2.041588 -20.007561 0.000000 
			CHANNELS 3 Xrotation Zrotation Yrotation
			JOINT lFoot
			{
				OFFSET 0.000000 -19.190928 -1.224953 
				CHANNELS 3 Xrotation Yrotation Zrotation
				End Site
				{
					OFFSET 0.000000 -2.449906 4.627600 
				}
			}
		}
	}
	JOINT rThigh
	{
		OFFSET -5.308129 -1.633274 1.361059 
		CHANNELS 3 Xrotation Zrotation Yrotation
		JOINT rShin
		{
			OFFSET 2.041588 -20.007561 0.000000 
			CHANNELS 3 Xrotation Zrotation Yrotation
			JOINT rFoot
			{
				OFFSET 0.000000 -19.190928 -1.224953 
				CHANNELS 3 Xrotation Yrotation Zrotation
				End Site
				{
					OFFSET 0.000000 -2.449906 4.627600 
				}
			}
		}
	}
}
MOTION
Frames: 18
Frame Time: 0.033333
55.266602 35.566071 32.913559 13.713483 -4.421576 -161.791214 53.168999 11.412231 -5.788908 -20.839844 0.000000 0.000000 -12.303655 -5.782147 -11.206788 -2.520860 -1.255023 0.218345 -4.754609 -0.109182 -0.002653 -58.238503 42.560421 3.214453 -29.288776 -27.274797 22.406544 -6.250801 25.657164 -27.437342 4.754609 0.109182 -0.002672 93.264229 -31.081076 -44.252041 2.503353 -0.507347 -4.776872 -11.191781 -8.690323 33.382309 -28.530842 -9.686299 -4.630900 119.913162 3.026375 -6.746198 -12.223165 -2.801301 -18.503927 -32.714008 -29.197802 -17.960360 56.902702 15.401520 5.872386 0.389377 15.064176 -10.956077 
55.367119 35.958000 31.482401 13.291356 -3.792420 -162.497345 52.548664 11.132767 -6.183234 -20.839844 0.000000 0.000000 -11.336277 -5.202472 -10.040437 -2.520860 -1.255023 0.218345 -4.754609 -0.109182 -0.002653 -58.065426 41.500179 3.377203 -30.236851 -27.700911 21.189150 -5.522310 26.026291 -28.060499 4.754609 0.109182 -0.002672 91.867195 -29.525883 -41.979553 2.521685 -0.475070 -3.906852 -11.454725 -8.884891 32.402348 -27.495539 -8.455802 -4.661017 118.501884 3.319963 -6.322011 -11.702932 -2.582146 -17.875187 -31.774723 -28.032722 -18.036001 57.966190 15.771115 6.032605 -2.087617 15.402071 -11.238166 
55.473228 36.369724 29.901491 12.812325 -3.123532 -163.278336 51.866047 10.830966 -6.615026 -20.839844 0.000000 0.000000 -10.291523 -4.604144 -8.757205 -2.520860 -1.255023 0.218345 -4.754609 -0.109182 -0.002653 -57.928787 40.228363 3.472791 -31.305031 -28.035149 19.804096 -4.626340 26.445990 -28.571177 4.754609 0.109182 -0.002672 90.427437 -27.644106 -39.431091 2.549967 -0.444038 -2.958666 -11.737795 -9.097898 31.245827 -26.316391 -7.138292 -4.654604 116.945587 3.612485 -5.875533 -11.162483 -2.296142 -17.173082 -30.624706 -26.727966 -18.131462 58.938755 16.141138 6.203574 -4.767620 15.761810 -11.508134 
55.585930 36.796680 28.158096 12.286378 -2.404639 -164.117645 51.111549 10.508865 -7.098065 -20.839844 0.000000 0.000000 -9.149954 -3.987508 -7.345316 -2.520860 -1.255023 0.218345 -4.754609 -0.109182 -0.002653 -57.841103 38.688343 3.466955 -32.480091 -28.218739 18.271379 -3.556605 26.926567 -28.940884 4.754609 0.109182 -0.002672 88.962593 -25.398855 -36.576443 2.568745 -0.413306 -1.912939 -12.009148 -9.321720 29.881163 -24.945873 -5.721574 -4.590946 115.234444 3.916135 -5.393389 -10.572742 -1.942230 -16.374805 -29.255220 -25.288721 -18.217714 59.786983 16.531322 6.346407 -7.626662 16.228649 -11.732532 
55.703201 37.230244 26.238569 11.684513 -1.635336 -165.035553 50.288971 10.172536 -7.600781 -20.839844 0.000000 0.000000 -7.912331 -3.361460 -5.807765 -2.520860 -1.255023 0.218345 -4.754609 -0.109182 -0.002653 -57.810242 36.809872 3.374455 -33.718060 -28.152796 16.592012 -2.292603 27.433243 -29.091330 4.754609 0.109182 -0.002672 87.524300 -22.713528 -33.411144 2.597600 -0.373802 -0.769435 -12.279451 -9.546566 28.297375 -23.400124 -4.216938 -4.485319 113.338982 4.218775 -4.885733 -9.888280 -1.491471 -15.487375 -27.614826 -23.687567 -18.288143 60.468121 16.933632 6.509727 -10.695459 16.710093 -11.900164 
55.825554 37.658730 24.129166 11.026546 -0.824341 -166.029892 49.385345 9.814671 -8.156775 -20.839844 0.000000 0.000000 -6.578232 -2.736907 -4.111008 -2.520860 -1.255023 0.218345 -4.754609 -0.109182 -0.002653 -57.835739 34.497517 3.154187 -34.961716 -27.759254 14.817352 -0.787055 27.962830 -28.945478 4.754609 0.109182 -0.002672 90.987335 -24.079046 -31.130507 15.008552 -3.528105 2.280332 -10.681497 -16.122208 25.851332 -21.635668 -2.636031 -4.291204 111.259460 4.492311 -4.356075 -9.147234 -0.951860 -14.510462 -25.711798 -21.941572 -18.307198 60.955738 17.324146 6.637985 -13.935050 17.276077 -11.991383 
55.950447 38.064365 21.816179 10.283206 0.048044 -167.100647 48.393414 9.448986 -8.760244 -20.839844 0.000000 0.000000 -5.138613 -2.113465 -2.270280 -2.520860 -1.255023 0.218345 -4.754609 -0.109182 -0.002653 -57.879864 31.644007 2.825722 -36.130932 -26.973904 13.025469 0.973272 28.453436 -28.417046 4.754609 0.109182 -0.002672 96.123619 -31.494783 -30.107300 39.997791 -3.718887 9.314101 -8.230300 -29.093620 21.212812 -19.652607 -0.996061 -3.992472 108.986137 4.744666 -3.789127 -8.324951 -0.264352 -13.451385 -23.513847 -20.036192 -18.248470 61.186119 17.703833 6.710726 -17.371475 17.915997 -11.965816 
56.063660 38.297390 19.272692 9.464213 0.953640 -168.258865 47.315132 9.075531 -9.388937 -20.839844 0.000000 0.000000 -3.583725 -1.521431 -0.271095 -2.520860 -1.255023 0.218345 -4.754609 -0.109182 -0.002653 -57.834915 28.115328 2.429869 -37.092697 -25.741444 11.314100 2.988572 28.860138 -27.435833 4.754609 0.109182 -0.002672 93.832016 -35.063774 -26.940046 53.282185 2.285719 12.631106 -8.360848 -36.189857 17.555067 -17.412472 0.654162 -3.623127 106.903778 4.918941 -3.130097 -7.736531 0.566965 -12.307916 -21.258894 -18.172392 -18.079723 61.783466 18.045973 6.972251 -21.289288 18.617987 -11.795617 
56.180428 38.500454 16.530720 8.559442 1.902416 -169.518250 46.138058 8.682124 -10.066988 -20.839844 0.000000 0.000000 -1.933217 -0.961835 1.889907 -2.520860 -1.255023 0.218345 -4.754609 -0.109182 -0.002653 -57.581062 23.819584 1.983164 -37.699085 -24.074219 9.816430 5.261035 29.099339 -25.950974 4.754609 0.109182 -0.002672 87.893234 -36.041534 -21.602354 62.124493 9.608259 13.298416 -9.414113 -41.025753 14.245863 -14.988462 2.323777 -3.138384 104.558868 5.075536 -2.434323 -6.937971 1.561707 -11.172934 -18.706682 -16.096632 -17.814651 62.146988 18.378710 7.085562 -25.412354 19.410425 -12.669662 
56.299217 38.656322 13.587200 7.558594 2.904275 -170.854538 44.865433 8.299417 -10.778394 -20.839844 0.000000 0.000000 -0.158008 -0.445856 4.212687 -2.520860 -1.255023 0.218345 -4.754609 -0.109182 -0.002653 -56.993317 18.723333 1.479222 -37.788506 -21.965040 8.675291 7.676785 29.084063 -23.888376 4.754609 0.109182 -0.002672 80.526787 -33.969425 -15.145230 68.084511 16.169697 12.348176 -10.889583 -43.953033 11.618735 -12.320243 3.953650 -2.528268 101.973152 5.173542 -1.672556 -5.864330 2.753622 -10.053001 -16.014002 -13.815764 -17.406849 62.604618 18.749374 6.760873 -29.903856 20.483980 -16.237480 
56.423096 38.714695 10.461904 -173.529648 176.070038 7.701496 43.494816 7.911311 -11.536839 -20.839844 0.000000 0.000000 1.722212 -0.014536 6.706494 -2.520860 -1.255023 0.218345 -4.754609 -0.109182 -0.002653 -56.058250 12.924119 0.719988 -37.266342 -19.352358 7.944710 10.075653 28.724337 -21.035398 4.754609 0.109182 -0.002672 73.937546 -28.913061 -9.071004 71.628677 20.885241 11.058340 -12.259776 -45.013218 9.807828 -9.495630 5.494633 -1.840030 99.218002 5.154665 -0.824431 -4.499700 4.123668 -9.047998 -13.573623 -12.186507 -16.921297 62.961708 18.826260 7.067392 -28.239031 20.234858 -14.891098 
56.547478 38.686779 7.233575 -174.686920 175.021378 6.195626 42.060555 7.546959 -12.291960 -20.839844 0.000000 0.000000 3.705426 0.315658 9.268014 -2.520860 -1.255023 0.218345 -4.754609 -0.109182 -0.002653 -54.877724 6.865982 -0.638206 -36.206295 -16.179335 7.609666 12.143852 27.970978 -17.077621 4.754609 0.109182 -0.002672 69.407196 -21.712221 -4.291890 72.576935 23.451841 10.533568 -12.782558 -44.196484 8.600334 -6.558784 6.949523 -1.023537 96.321571 5.076673 0.110025 -2.790702 5.663923 -8.148472 -10.761134 -10.506688 -16.365128 62.770470 18.846922 7.314443 -26.224155 20.161577 -13.878099 
56.590118 38.249668 4.043826 -176.016434 174.446945 4.351017 41.247742 7.326190 -13.161887 -20.839844 0.000000 0.000000 3.912956 0.410180 11.611729 -2.520860 -1.255023 0.218345 -4.754609 -0.109182 -0.002653 -55.618935 1.117344 -3.713970 -34.901501 -11.330996 5.993633 13.277102 26.565151 -11.740998 4.754609 0.109182 -0.002672 68.349503 -12.001000 -1.469796 72.233521 22.329416 9.298108 -13.888398 -43.884563 7.524706 -3.914110 7.711770 -0.108382 94.045914 4.403410 1.099245 -3.702135 7.663001 -7.792933 -9.471796 -8.475252 -14.148378 64.223579 17.235270 7.256371 -27.638571 18.723372 -14.674916 
56.557121 37.319592 0.859153 -178.213913 174.328918 2.364155 40.519306 7.238799 -13.988689 -20.839844 0.000000 0.000000 2.485177 0.171045 13.955229 -2.520860 -1.255023 0.218345 -4.754609 -0.109182 -0.002653 -57.509449 -5.393591 -8.178751 -33.402386 -5.287982 2.513734 14.096890 24.839628 -5.292947 4.754609 0.109182 -0.002672 69.389778 -1.394660 0.977146 70.985710 19.936972 9.101634 -17.035358 -43.250969 8.836937 -3.462006 6.836963 -0.021121 93.652054 3.553985 0.981857 -4.498755 7.658926 -6.932595 -9.128370 -7.184557 -11.913959 66.550156 15.204000 7.701088 -30.106873 17.313900 -13.776414 
56.505844 35.947853 -2.400164 179.067719 174.336685 0.552972 39.130489 7.306241 -13.722057 -20.839844 0.000000 0.000000 0.754063 -0.067219 14.648622 -2.520860 -1.255023 0.218345 -4.754609 -0.109182 -0.002653 -59.832527 -11.482528 -11.176482 -32.121891 -0.861225 -0.104467 15.862783 23.662441 0.860946 4.754609 0.109182 -0.002672 68.967133 8.324313 3.827284 69.172440 19.249296 8.066123 -19.670038 -42.296535 7.623265 -5.669672 5.230732 -0.751001 96.376007 3.348289 -0.300016 -4.389140 5.638667 -7.198364 -8.375138 -5.797170 -9.628208 68.272751 13.045194 8.547588 -34.911343 16.486628 -11.110638 
56.431213 34.471008 -5.610226 176.640228 175.544754 0.471166 37.998142 7.122159 -13.965940 -20.839844 0.000000 0.000000 -1.272562 -0.394197 14.171960 -2.520860 -1.255023 0.218345 -4.754609 -0.109182 -0.002653 -62.955875 -15.483139 -12.553444 -32.152805 2.062557 -0.956585 17.024570 22.153250 6.471674 4.754609 0.109182 -0.002672 66.193680 16.314215 6.548803 67.366745 20.842529 6.195765 -23.404972 -42.575634 4.604314 -10.670084 2.391642 -2.365890 102.880852 3.913830 -0.936177 -5.478302 4.091074 -7.448184 -5.045057 -6.223952 -9.145166 67.984253 11.923583 9.134709 -43.359070 16.916868 -9.190804 
56.335770 33.389137 -9.040619 173.754410 177.631302 1.918802 36.851639 6.207911 -14.571584 -20.839844 0.000000 0.000000 -3.821275 -1.208326 12.598173 -2.520860 -1.255023 0.218345 -4.754609 -0.109182 -0.002653 -66.282707 -18.416090 -12.383360 -31.706676 3.739131 -0.292771 17.682673 21.010319 11.335643 4.754609 0.109182 -0.002672 62.348980 20.896076 8.361127 66.329559 23.766104 4.930673 -26.756168 -43.908760 2.150662 -18.232992 -1.795958 -4.439715 111.244751 5.018620 -0.017912 -6.442767 4.261017 -6.987573 0.497075 -9.155849 -11.696371 64.120392 12.653114 9.763925 -49.312218 19.160461 -7.342638 
56.277901 33.040359 -13.164500 171.337570 179.497986 2.628599 35.896160 4.050803 -14.849790 -20.839844 0.000000 0.000000 -5.653489 -1.470215 10.742868 -2.520860 -1.255023 0.218345 -4.754609 -0.109182 -0.002653 -70.370132 -18.725702 -12.069593 -30.844137 4.908668 0.355120 18.972500 20.593008 15.496772 4.754609 0.109182 -0.002672 62.056000 21.462446 10.049783 64.571968 25.809883 5.797481 -27.893036 -44.834923 1.674910 -24.430887 -4.843599 -5.450343 117.986000 5.634735 0.813522 -6.866284 4.326203 -6.855417 9.185694 -11.774993 -15.695375 54.661835 14.126856 9.458428 -48.783169 22.440832 -5.395360 
